<?xml version="1.0" standalone="no"?>
<!DOCTYPE svg PUBLIC "-//W3C//DTD SVG 20010904//EN"
 "http://www.w3.org/TR/2001/REC-SVG-20010904/DTD/svg10.dtd">
<svg version="1.0" xmlns="http://www.w3.org/2000/svg"
 width="1522.000000pt" height="1522.000000pt" viewBox="0 0 1542.000000 1542.000000"
 preserveAspectRatio="xMidYMid meet">

<g transform="translate(0.000000,1542.000000) scale(0.100000,-0.100000)"
fill="#0B7FA4" stroke="none">
<path d="M9425 15400 c-6 -18 -15 -20 -106 -20 -79 0 -101 -3 -105 -15 -5 -11
-23 -15 -75 -15 -53 0 -71 -4 -75 -15 -5 -11 -23 -15 -75 -15 -53 0 -71 -4
-75 -15 -5 -11 -21 -15 -60 -15 -39 0 -56 -4 -60 -15 -5 -11 -21 -15 -60 -15
-39 0 -56 -4 -60 -15 -4 -10 -20 -15 -45 -15 -26 0 -42 -5 -45 -15 -5 -11 -21
-15 -60 -15 -39 0 -56 -4 -60 -15 -4 -10 -20 -15 -45 -15 -26 0 -42 -5 -45
-15 -4 -8 -17 -15 -30 -15 -14 0 -27 -7 -30 -15 -4 -10 -20 -15 -45 -15 -26 0
-42 -5 -45 -15 -4 -10 -20 -15 -45 -15 -26 0 -42 -5 -45 -15 -4 -8 -17 -15
-30 -15 -14 0 -27 -7 -30 -15 -4 -8 -17 -15 -30 -15 -14 0 -27 -7 -30 -15 -4
-10 -20 -15 -45 -15 -26 0 -42 -5 -45 -15 -4 -8 -17 -15 -30 -15 -14 0 -27 -7
-30 -15 -4 -8 -17 -15 -30 -15 -14 0 -27 -7 -30 -15 -4 -8 -17 -15 -30 -15
-14 0 -27 -7 -30 -15 -4 -8 -17 -15 -30 -15 -14 0 -27 -7 -30 -15 -4 -8 -17
-15 -30 -15 -14 0 -27 -7 -30 -15 -4 -8 -17 -15 -30 -15 -14 0 -27 -7 -30 -15
-4 -8 -16 -15 -28 -15 -12 0 -33 -13 -46 -30 -14 -16 -35 -29 -48 -30 -12 0
-25 -7 -28 -15 -4 -8 -16 -15 -28 -15 -12 0 -33 -13 -46 -30 -14 -16 -34 -29
-45 -30 -12 0 -32 -13 -45 -30 -14 -16 -34 -29 -45 -30 -12 0 -32 -13 -45 -30
-14 -16 -34 -29 -45 -30 -12 0 -32 -13 -45 -30 -14 -16 -34 -29 -44 -30 -11 0
-39 -20 -63 -45 -23 -25 -50 -45 -60 -45 -9 0 -36 -20 -60 -45 -23 -25 -50
-45 -59 -45 -9 0 -57 -40 -106 -90 -49 -49 -96 -90 -104 -90 -21 0 -414 -394
-414 -415 0 -8 -34 -49 -75 -89 -41 -40 -75 -81 -75 -90 0 -10 -27 -43 -60
-75 -33 -32 -60 -66 -60 -76 0 -9 -20 -36 -45 -59 -25 -24 -45 -52 -45 -62 0
-11 -13 -30 -30 -44 -16 -14 -30 -34 -30 -45 0 -11 -13 -31 -30 -45 -16 -14
-30 -34 -30 -45 0 -11 -13 -31 -30 -45 -16 -14 -30 -34 -30 -45 0 -11 -13 -31
-30 -45 -17 -14 -30 -34 -30 -48 0 -12 -7 -25 -15 -28 -8 -4 -15 -17 -15 -30
0 -14 -7 -27 -15 -30 -8 -4 -15 -16 -15 -28 0 -12 -13 -32 -30 -46 -17 -14
-30 -34 -30 -48 0 -12 -7 -25 -15 -28 -8 -4 -15 -17 -15 -30 0 -14 -7 -27 -15
-30 -8 -4 -15 -17 -15 -30 0 -14 -7 -27 -15 -30 -8 -4 -15 -17 -15 -30 0 -14
-7 -27 -15 -30 -8 -4 -15 -17 -15 -30 0 -14 -7 -27 -15 -30 -10 -4 -15 -20
-15 -45 0 -26 -5 -42 -15 -45 -8 -4 -15 -17 -15 -30 0 -14 -7 -27 -15 -30 -8
-4 -15 -17 -15 -30 0 -14 -7 -27 -15 -30 -10 -4 -15 -20 -15 -45 0 -26 -5 -42
-15 -45 -8 -4 -15 -17 -15 -30 0 -14 -7 -27 -15 -30 -10 -4 -15 -20 -15 -45 0
-26 -5 -42 -15 -45 -10 -4 -15 -20 -15 -45 0 -26 -5 -42 -15 -45 -10 -4 -15
-20 -15 -45 0 -26 -5 -42 -15 -45 -10 -4 -15 -20 -15 -45 0 -26 -5 -42 -15
-45 -11 -5 -15 -21 -15 -60 0 -39 -4 -56 -15 -60 -11 -5 -15 -21 -15 -60 0
-39 -4 -56 -15 -60 -11 -5 -15 -21 -15 -60 0 -39 -4 -56 -15 -60 -11 -5 -15
-23 -15 -75 0 -53 -4 -71 -15 -75 -12 -5 -15 -25 -15 -90 0 -66 -3 -86 -15
-90 -12 -5 -15 -26 -15 -105 0 -79 -3 -101 -15 -105 -13 -5 -15 -35 -15 -180
0 -146 -2 -176 -15 -180 -13 -5 -15 -42 -15 -249 0 -207 2 -244 15 -249 13 -4
15 -36 15 -195 0 -159 2 -190 15 -195 12 -4 15 -26 15 -105 0 -79 3 -100 15
-105 12 -4 15 -24 15 -90 0 -65 3 -85 15 -90 11 -4 15 -22 15 -75 0 -52 4 -70
15 -75 11 -4 15 -21 15 -60 0 -39 4 -55 15 -60 11 -4 15 -21 15 -60 0 -39 4
-55 15 -60 10 -3 15 -19 15 -45 0 -25 5 -41 15 -45 11 -4 15 -21 15 -60 l0
-54 -2445 -2445 c-1488 -1488 -2445 -2453 -2445 -2464 0 -10 -13 -29 -30 -43
-17 -14 -30 -34 -30 -48 0 -12 -7 -25 -15 -28 -8 -4 -15 -17 -15 -30 0 -14 -7
-27 -15 -30 -11 -5 -15 -21 -15 -61 0 -46 -3 -56 -20 -60 -20 -5 -20 -14 -20
-1358 0 -1344 0 -1353 20 -1358 16 -4 20 -14 20 -45 0 -26 5 -42 15 -46 10 -3
15 -19 15 -43 0 -30 6 -43 30 -63 16 -14 30 -33 30 -43 0 -24 182 -207 206
-207 11 -1 30 -14 44 -30 19 -23 32 -30 61 -30 23 0 39 -5 42 -14 4 -9 23 -16
49 -18 40 -3 43 -5 46 -35 l3 -33 1354 0 1354 0 3 32 c3 33 4 33 61 36 39 2
60 8 64 18 3 7 16 14 29 14 14 0 27 7 30 15 4 8 16 15 28 15 12 0 33 13 46 30
14 16 33 29 44 30 24 0 116 93 116 117 0 10 14 29 30 43 17 14 30 34 30 48 0
12 7 25 15 28 8 4 15 17 15 30 0 14 7 27 15 30 10 4 15 20 15 45 0 23 6 41 15
46 13 8 15 98 17 693 l3 685 658 3 c572 2 658 4 663 17 5 11 22 15 60 15 39 0
56 4 60 15 4 10 20 15 45 15 26 0 42 5 45 15 4 8 16 15 28 15 12 0 33 13 46
30 14 16 33 29 44 30 24 0 116 93 116 117 0 10 14 29 30 43 17 14 30 34 30 48
0 12 7 25 15 28 8 4 15 17 15 30 0 14 7 27 15 30 10 4 15 20 15 45 0 23 6 41
15 46 13 8 15 98 17 693 l3 685 658 3 c572 2 658 4 663 17 5 11 22 15 60 15
39 0 56 4 60 15 4 10 20 15 45 15 26 0 42 5 45 15 4 8 15 15 27 15 11 0 40 20
64 45 23 25 50 45 59 45 9 0 245 229 526 510 l509 510 54 0 c38 0 54 -4 59
-15 3 -10 19 -15 45 -15 25 0 41 -5 45 -15 4 -11 21 -15 60 -15 39 0 55 -4 60
-15 4 -11 21 -15 60 -15 39 0 55 -4 60 -15 4 -11 22 -15 75 -15 52 0 70 -4 75
-15 4 -12 24 -15 90 -15 65 0 85 -3 90 -15 4 -12 26 -15 105 -15 79 0 100 -3
105 -15 4 -13 36 -15 195 -15 159 0 190 -2 195 -15 5 -13 42 -15 251 -15 209
0 246 2 251 15 5 13 35 15 180 15 146 0 176 2 180 15 5 12 26 15 105 15 79 0
101 3 105 15 5 12 25 15 90 15 66 0 86 3 90 15 5 11 23 15 75 15 53 0 71 4 75
15 5 11 21 15 60 15 39 0 56 4 60 15 5 11 21 15 60 15 39 0 56 4 60 15 5 11
21 15 60 15 39 0 56 4 60 15 4 10 20 15 45 15 26 0 42 5 45 15 4 10 20 15 45
15 26 0 42 5 45 15 4 10 20 15 45 15 26 0 42 5 45 15 4 10 20 15 45 15 26 0
42 5 45 15 4 8 17 15 30 15 14 0 27 7 30 15 4 10 20 15 45 15 26 0 42 5 45 15
4 8 17 15 30 15 14 0 27 7 30 15 4 8 17 15 30 15 14 0 27 7 30 15 4 10 20 15
45 15 26 0 42 5 45 15 4 8 17 15 30 15 14 0 27 7 30 15 4 8 17 15 30 15 14 0
27 7 30 15 4 8 17 15 30 15 14 0 27 7 30 15 4 8 17 15 30 15 14 0 27 7 30 15
4 8 16 15 28 15 12 0 33 13 46 30 14 16 35 29 48 30 12 0 25 7 28 15 4 8 17
15 30 15 14 0 27 7 30 15 4 8 16 15 28 15 12 0 33 13 46 30 14 16 34 29 45 30
12 0 32 13 45 30 14 16 34 29 45 30 12 0 32 13 45 30 14 16 34 29 45 30 12 0
32 13 45 30 14 16 34 29 44 30 11 0 39 20 63 45 23 25 50 45 59 45 10 0 43 27
76 60 32 33 65 60 74 60 9 0 50 34 91 75 40 41 80 75 89 75 21 0 414 394 414
414 0 9 41 56 90 105 49 49 90 96 90 106 0 9 20 36 45 59 25 24 45 51 45 60 0
10 20 37 45 60 25 24 45 52 45 62 0 11 13 30 30 44 16 14 30 34 30 45 0 11 13
31 30 45 16 14 30 34 30 45 0 11 13 31 30 45 16 14 30 34 30 45 0 11 14 31 30
45 17 14 30 34 30 48 0 12 7 25 15 28 8 4 15 16 15 28 0 12 14 32 30 46 17 14
30 34 30 48 0 12 7 25 15 28 8 4 15 17 15 30 0 14 7 27 15 30 8 4 15 17 15 30
0 14 7 27 15 30 8 4 15 17 15 30 0 14 7 27 15 30 8 4 15 17 15 30 0 14 7 27
15 30 8 4 15 17 15 30 0 14 7 27 15 30 8 4 15 17 15 30 0 14 7 27 15 30 10 4
15 20 15 45 0 26 5 42 15 45 8 4 15 17 15 30 0 14 7 27 15 30 8 4 15 17 15 30
0 14 7 27 15 30 10 4 15 20 15 45 0 26 5 42 15 45 10 4 15 20 15 45 0 26 5 42
15 45 8 4 15 17 15 30 0 14 7 27 15 30 10 4 15 20 15 45 0 26 5 42 15 45 11 5
15 21 15 60 0 39 4 56 15 60 10 4 15 20 15 45 0 26 5 42 15 45 11 5 15 21 15
60 0 39 4 56 15 60 11 5 15 21 15 60 0 39 4 56 15 60 11 5 15 23 15 75 0 53 4
71 15 75 11 5 15 23 15 75 0 53 4 71 15 75 12 5 15 26 15 105 0 79 3 101 15
105 12 5 15 30 15 136 0 121 1 130 20 135 20 5 20 14 20 413 0 399 0 408 -20
413 -19 5 -20 14 -20 150 0 120 -3 146 -15 151 -12 4 -15 24 -15 90 0 65 -3
85 -15 90 -12 4 -15 24 -15 90 0 65 -3 85 -15 90 -11 4 -15 21 -15 60 0 39 -4
55 -15 60 -11 4 -15 22 -15 75 0 52 -4 70 -15 75 -10 3 -15 19 -15 45 0 25 -5
41 -15 45 -11 4 -15 21 -15 60 0 39 -4 55 -15 60 -10 3 -15 19 -15 45 0 25 -5
41 -15 45 -10 3 -15 19 -15 45 0 25 -5 41 -15 45 -10 3 -15 19 -15 45 0 25 -5
41 -15 45 -8 3 -15 16 -15 30 0 13 -7 26 -15 30 -10 3 -15 19 -15 45 0 25 -5
41 -15 45 -8 3 -15 16 -15 30 0 13 -7 26 -15 30 -10 3 -15 19 -15 45 0 25 -5
41 -15 45 -8 3 -15 16 -15 30 0 13 -7 26 -15 30 -8 3 -15 16 -15 30 0 13 -7
26 -15 30 -8 3 -15 16 -15 30 0 13 -7 26 -15 30 -8 3 -15 16 -15 30 0 13 -7
26 -15 30 -8 3 -15 16 -15 30 0 13 -7 26 -15 30 -8 3 -15 16 -15 30 0 13 -7
26 -15 30 -8 3 -15 16 -15 30 0 13 -7 26 -15 30 -8 3 -15 16 -15 30 0 13 -7
26 -15 30 -8 3 -15 16 -15 28 0 14 -13 34 -30 48 -16 14 -30 34 -30 46 0 12
-7 24 -15 28 -8 3 -15 16 -15 28 0 14 -13 34 -30 48 -17 14 -30 34 -30 45 0
11 -13 31 -30 45 -16 14 -30 34 -30 45 0 11 -13 31 -30 45 -16 14 -30 33 -30
44 0 10 -20 38 -45 62 -25 23 -45 50 -45 60 0 9 -20 36 -45 60 -25 23 -45 50
-45 59 0 10 -34 51 -75 91 -41 40 -75 81 -75 89 0 21 -513 535 -534 535 -9 0
-49 34 -89 75 -41 41 -82 75 -91 75 -9 0 -36 20 -59 45 -24 25 -51 45 -60 45
-10 0 -37 20 -60 45 -24 25 -52 45 -63 45 -10 1 -30 14 -44 30 -13 17 -33 30
-45 30 -11 1 -31 14 -45 30 -13 17 -33 30 -45 30 -11 1 -31 14 -45 30 -13 17
-34 30 -46 30 -12 0 -24 7 -28 15 -3 8 -16 15 -28 15 -13 1 -34 14 -48 30 -13
17 -34 30 -46 30 -12 0 -24 7 -28 15 -3 8 -16 15 -30 15 -13 0 -26 7 -30 15
-3 8 -16 15 -30 15 -13 0 -26 7 -30 15 -3 8 -16 15 -30 15 -13 0 -26 7 -30 15
-3 8 -16 15 -30 15 -13 0 -26 7 -30 15 -3 8 -16 15 -30 15 -13 0 -26 7 -30 15
-3 8 -16 15 -30 15 -13 0 -26 7 -30 15 -3 8 -16 15 -30 15 -13 0 -26 7 -30 15
-3 8 -16 15 -30 15 -13 0 -26 7 -30 15 -3 10 -19 15 -45 15 -25 0 -41 5 -45
15 -3 8 -16 15 -30 15 -13 0 -26 7 -30 15 -3 10 -19 15 -45 15 -25 0 -41 5
-45 15 -3 8 -16 15 -30 15 -13 0 -26 7 -30 15 -3 10 -19 15 -45 15 -25 0 -41
5 -45 15 -3 10 -19 15 -45 15 -25 0 -41 5 -45 15 -3 10 -19 15 -45 15 -25 0
-41 5 -45 15 -4 11 -21 15 -60 15 -39 0 -55 4 -60 15 -3 10 -19 15 -45 15 -25
0 -41 5 -45 15 -4 11 -22 15 -75 15 -52 0 -70 4 -75 15 -4 11 -21 15 -60 15
-39 0 -55 4 -60 15 -4 12 -24 15 -90 15 -65 0 -85 3 -90 15 -4 12 -24 15 -90
15 -76 0 -85 2 -91 20 -6 20 -15 20 -700 20 -685 0 -694 0 -700 -20z m2039
-2865 c4 -11 22 -15 75 -15 52 0 70 -4 75 -15 3 -10 19 -15 45 -15 25 0 41 -5
45 -15 3 -10 19 -15 45 -15 25 0 41 -5 45 -15 3 -8 16 -15 30 -15 13 0 26 -7
30 -15 3 -8 16 -15 28 -15 13 -1 34 -14 48 -30 13 -17 32 -30 42 -30 10 0 38
-20 61 -45 24 -25 51 -45 59 -45 22 0 128 -105 128 -126 0 -9 20 -36 45 -60
25 -23 45 -50 45 -61 0 -10 14 -29 30 -43 17 -14 30 -34 30 -46 0 -12 7 -24
15 -28 8 -3 15 -16 15 -30 0 -13 7 -26 15 -30 10 -3 15 -19 15 -45 0 -25 5
-41 15 -45 10 -3 15 -19 15 -45 0 -25 5 -41 15 -45 11 -4 15 -22 15 -75 0 -52
4 -70 15 -75 12 -4 15 -30 15 -141 0 -111 -3 -137 -15 -141 -11 -5 -15 -23
-15 -75 0 -53 -4 -71 -15 -75 -11 -5 -15 -21 -15 -60 0 -39 -4 -56 -15 -60 -8
-4 -15 -17 -15 -30 0 -14 -7 -27 -15 -30 -8 -4 -15 -17 -15 -30 0 -14 -7 -27
-15 -30 -8 -4 -15 -17 -15 -30 0 -14 -7 -27 -15 -30 -8 -4 -15 -16 -15 -28 0
-12 -13 -32 -30 -46 -16 -14 -30 -33 -30 -42 0 -23 -256 -278 -279 -278 -9 0
-28 -13 -41 -30 -14 -16 -35 -29 -48 -30 -12 0 -25 -7 -28 -15 -4 -8 -17 -15
-30 -15 -14 0 -27 -7 -30 -15 -4 -8 -17 -15 -30 -15 -14 0 -27 -7 -30 -15 -4
-10 -20 -15 -45 -15 -26 0 -42 -5 -45 -15 -5 -11 -21 -15 -60 -15 -39 0 -56
-4 -60 -15 -5 -13 -40 -15 -229 -15 -189 0 -224 2 -229 15 -4 11 -21 15 -60
15 -39 0 -55 4 -60 15 -3 10 -19 15 -45 15 -25 0 -41 5 -45 15 -3 8 -16 15
-30 15 -13 0 -26 7 -30 15 -3 8 -16 15 -30 15 -13 0 -26 7 -30 15 -3 8 -16 15
-30 15 -13 0 -26 7 -30 15 -3 8 -15 15 -26 15 -11 0 -40 20 -63 45 -24 25 -51
45 -59 45 -22 0 -158 135 -158 156 0 9 -20 36 -45 60 -25 23 -45 51 -45 62 0
11 -7 22 -15 26 -8 3 -15 16 -15 30 0 13 -7 26 -15 30 -8 3 -15 16 -15 30 0
13 -7 26 -15 30 -8 3 -15 16 -15 30 0 13 -7 26 -15 30 -10 3 -15 19 -15 45 0
25 -5 41 -15 45 -11 4 -15 21 -15 60 0 39 -4 55 -15 60 -13 4 -15 40 -15 231
0 191 2 227 15 231 11 5 15 21 15 60 0 39 4 56 15 60 10 4 15 20 15 45 0 26 5
42 15 45 8 4 15 17 15 30 0 14 7 27 15 30 8 4 15 17 15 30 0 14 7 27 15 30 8
4 15 16 15 28 0 12 14 32 30 46 17 14 30 33 30 42 0 23 256 278 279 278 9 0
28 13 41 30 14 16 35 29 48 30 12 0 25 7 28 15 4 8 17 15 30 15 14 0 27 7 30
15 4 8 17 15 30 15 14 0 27 7 30 15 4 8 17 15 30 15 14 0 27 7 30 15 5 11 21
15 60 15 39 0 56 4 60 15 5 11 23 15 75 15 53 0 71 4 75 15 5 12 30 15 139 15
109 0 134 -3 139 -15z"/>
</g>
</svg>
