<?xml version="1.0" standalone="no"?>
<!DOCTYPE svg PUBLIC "-//W3C//DTD SVG 20010904//EN"
 "http://www.w3.org/TR/2001/REC-SVG-20010904/DTD/svg10.dtd">
<svg version="1.0" xmlns="http://www.w3.org/2000/svg"
 width="756.000000pt" height="1088.000000pt" viewBox="0 0 756.000000 1088.000000"
 preserveAspectRatio="xMidYMid meet">

<g transform="translate(0.000000,1088.000000) scale(0.100000,-0.100000)"
fill="#0B7FA4" stroke="none">
<path d="M3456 10871 c-3 -4 -53 -11 -111 -15 -59 -4 -114 -11 -123 -16 -9 -4
-62 -14 -116 -20 -55 -7 -106 -16 -115 -20 -9 -5 -50 -14 -91 -20 -41 -7 -80
-16 -86 -21 -6 -5 -38 -14 -70 -20 -33 -6 -61 -14 -64 -18 -3 -4 -31 -13 -63
-20 -32 -7 -70 -19 -85 -26 -32 -15 -64 -28 -112 -45 -38 -13 -69 -26 -140
-58 -25 -11 -57 -24 -72 -27 -16 -4 -28 -11 -28 -15 0 -5 -13 -11 -30 -15 -17
-4 -30 -10 -30 -14 0 -4 -18 -14 -40 -21 -22 -7 -40 -16 -40 -20 0 -4 -18 -13
-40 -20 -22 -7 -40 -17 -40 -21 0 -4 -21 -17 -47 -30 -55 -26 -126 -71 -131
-81 -2 -5 -8 -8 -14 -8 -6 0 -25 -10 -42 -23 -17 -13 -39 -26 -48 -30 -10 -3
-18 -11 -18 -17 0 -5 -6 -10 -13 -10 -7 0 -34 -18 -61 -40 -26 -22 -52 -40
-57 -40 -4 0 -39 -27 -77 -60 -39 -33 -73 -60 -77 -60 -16 0 -435 -410 -435
-425 0 -5 -18 -25 -40 -44 -22 -19 -40 -38 -40 -43 0 -8 -69 -96 -125 -160 -8
-10 -15 -21 -15 -25 -1 -5 -14 -24 -30 -43 -17 -19 -30 -38 -30 -43 0 -4 -5
-13 -10 -20 -25 -29 -77 -104 -88 -127 -7 -14 -24 -43 -37 -65 -13 -22 -39
-69 -57 -105 -18 -36 -38 -68 -44 -73 -7 -4 -15 -21 -19 -37 -4 -17 -10 -30
-15 -30 -4 0 -13 -20 -19 -45 -6 -25 -16 -45 -21 -45 -6 0 -10 -5 -10 -12 0
-6 -8 -30 -18 -52 -41 -89 -45 -101 -43 -113 1 -7 -3 -13 -8 -13 -6 0 -13 -16
-17 -35 -3 -19 -10 -35 -14 -35 -5 0 -14 -25 -21 -55 -7 -30 -15 -55 -19 -55
-4 0 -13 -28 -20 -62 -7 -35 -16 -67 -21 -73 -4 -5 -13 -38 -19 -72 -7 -35
-16 -63 -20 -63 -5 0 -11 -27 -15 -60 -4 -33 -11 -62 -16 -65 -4 -3 -6 -12 -2
-20 3 -9 1 -21 -5 -28 -5 -6 -13 -45 -17 -84 -4 -40 -10 -73 -15 -73 -8 0 -30
-225 -30 -307 0 -28 -4 -55 -10 -58 -13 -8 -14 -408 -1 -433 5 -9 14 -75 21
-147 6 -71 15 -132 19 -135 5 -3 12 -32 16 -65 4 -33 12 -66 17 -72 6 -7 8
-22 5 -33 -3 -11 -1 -20 3 -20 5 0 12 -25 15 -55 4 -30 11 -55 15 -55 4 0 13
-28 20 -62 6 -35 16 -67 20 -73 4 -5 14 -38 20 -72 7 -35 16 -63 20 -63 4 0
11 -17 15 -37 4 -21 10 -42 13 -48 4 -5 7 -14 7 -20 1 -10 19 -55 36 -88 6
-10 7 -22 4 -27 -4 -6 -2 -10 3 -10 6 0 13 -16 16 -35 4 -19 10 -35 15 -35 4
0 13 -25 20 -55 7 -30 16 -55 20 -55 4 0 13 -23 21 -52 7 -29 19 -58 26 -66 8
-7 14 -22 14 -32 0 -10 5 -22 10 -25 6 -4 8 -11 5 -16 -4 -5 -2 -9 3 -9 6 0
13 -12 16 -27 4 -16 15 -46 26 -68 43 -91 60 -132 60 -148 0 -9 4 -17 8 -17 5
0 14 -18 21 -40 6 -22 16 -40 21 -40 4 0 11 -13 15 -29 3 -15 33 -82 65 -147
33 -65 60 -127 60 -136 0 -10 4 -18 8 -18 7 0 34 -59 31 -69 0 -2 3 -7 8 -10
11 -8 63 -113 63 -129 0 -6 4 -12 10 -12 5 0 15 -18 21 -40 7 -22 16 -40 20
-40 4 0 40 -64 79 -142 78 -156 102 -200 111 -208 3 -3 11 -20 17 -39 7 -19
23 -48 36 -66 13 -17 31 -47 40 -66 8 -19 36 -70 61 -114 24 -44 48 -88 51
-97 4 -10 11 -18 16 -18 5 0 6 -4 3 -10 -3 -5 -2 -10 3 -10 5 0 13 -8 16 -17
4 -10 20 -40 36 -68 16 -27 34 -61 40 -75 6 -14 22 -39 35 -56 13 -17 21 -34
18 -38 -4 -3 -1 -6 5 -6 6 0 13 -13 17 -30 4 -16 12 -33 18 -37 7 -5 18 -19
25 -33 7 -14 26 -47 42 -75 17 -27 33 -57 37 -65 4 -8 9 -17 12 -20 10 -8 31
-43 46 -77 9 -18 19 -33 23 -33 4 0 14 -16 21 -35 7 -19 16 -35 21 -35 5 0 12
-9 15 -21 6 -19 42 -79 63 -104 4 -5 11 -17 15 -25 5 -8 19 -33 32 -55 14 -22
32 -55 40 -73 8 -17 19 -32 24 -32 5 0 11 -8 15 -17 7 -22 34 -68 64 -110 12
-17 22 -36 22 -42 0 -6 5 -11 10 -11 6 0 10 -5 10 -12 0 -6 11 -26 25 -44 14
-18 25 -37 25 -42 0 -7 50 -79 87 -127 5 -5 14 -21 21 -35 7 -14 26 -45 42
-70 16 -25 35 -56 42 -70 11 -23 63 -97 88 -127 5 -7 10 -15 10 -19 0 -4 11
-22 25 -40 14 -18 25 -38 25 -44 0 -6 7 -13 15 -16 8 -4 15 -10 15 -15 0 -9
49 -89 61 -99 3 -3 12 -20 20 -37 8 -18 17 -33 22 -33 4 0 12 -11 17 -25 5
-14 13 -25 18 -25 4 0 14 -16 22 -35 8 -19 18 -35 22 -35 5 0 13 -11 18 -25 5
-14 14 -25 20 -25 5 0 10 -5 10 -11 0 -6 10 -25 23 -42 12 -18 27 -39 32 -49
32 -53 74 -114 104 -151 18 -23 37 -52 42 -64 5 -13 13 -23 19 -23 5 0 10 -5
10 -11 0 -6 11 -25 25 -43 14 -18 25 -36 25 -41 0 -4 16 -27 35 -51 19 -23 35
-47 35 -53 0 -7 7 -14 15 -17 8 -4 15 -12 15 -20 0 -7 6 -17 13 -21 6 -4 19
-21 27 -38 8 -16 21 -36 28 -45 32 -37 82 -110 82 -119 0 -6 9 -16 20 -23 11
-7 20 -17 20 -22 0 -5 16 -28 35 -52 19 -23 35 -45 35 -49 0 -3 11 -21 25 -39
14 -18 25 -37 25 -42 0 -5 9 -15 20 -22 11 -7 20 -17 20 -24 0 -6 16 -30 35
-54 19 -23 35 -47 35 -53 0 -7 7 -14 15 -17 8 -4 15 -11 15 -16 0 -6 18 -32
40 -58 22 -26 40 -53 40 -59 0 -5 9 -15 20 -21 11 -6 20 -16 20 -22 0 -6 16
-30 35 -54 19 -23 35 -46 35 -51 0 -23 52 -53 90 -53 38 0 90 30 90 53 0 5 16
28 35 51 19 24 35 48 35 54 0 6 9 16 20 22 11 6 20 16 20 21 0 6 18 33 40 59
22 26 40 52 40 58 0 5 7 12 15 16 8 3 15 10 15 17 0 6 16 30 35 53 19 24 35
48 35 54 0 7 9 17 20 24 11 7 20 17 20 22 0 5 11 24 25 42 14 18 25 36 25 39
0 4 16 26 35 49 19 24 35 47 35 52 0 5 9 15 20 22 11 7 20 17 20 23 0 9 50 82
82 119 7 9 20 29 28 45 8 17 21 34 27 38 7 4 13 14 13 21 0 8 7 16 15 20 8 3
15 10 15 17 0 6 16 30 35 53 19 24 35 47 35 51 0 5 11 23 25 41 14 18 25 37
25 43 0 6 5 11 10 11 6 0 14 10 19 23 5 12 24 41 42 64 30 37 72 98 104 151 5
10 20 31 32 49 13 17 23 36 23 42 0 6 5 11 10 11 6 0 15 11 20 25 5 14 13 25
18 25 4 0 14 16 22 35 8 19 18 35 22 35 5 0 13 11 18 25 5 14 13 25 17 25 5 0
14 15 22 32 8 18 17 35 20 38 14 12 61 87 61 97 0 6 7 13 15 17 8 3 15 10 15
16 0 6 11 26 25 44 14 18 25 36 25 40 0 4 5 12 10 19 25 30 77 104 88 127 7
14 26 45 42 70 16 25 35 56 42 70 7 14 16 30 21 35 37 48 87 120 87 127 0 5
11 24 25 42 14 18 25 38 25 44 0 7 5 12 10 12 6 0 10 5 10 11 0 6 10 25 23 42
29 42 56 88 63 110 4 9 10 17 15 17 5 0 16 15 24 32 8 18 26 51 40 73 13 22
27 48 31 57 3 10 10 18 15 18 5 0 16 15 24 33 27 55 48 91 62 105 7 7 16 24
19 38 3 13 10 24 15 24 5 0 15 15 24 32 15 35 36 70 46 78 3 3 8 12 12 20 4 8
20 38 37 65 16 28 35 61 42 75 7 14 18 28 25 33 6 4 14 21 18 37 4 17 11 30
17 30 6 0 9 3 5 6 -3 4 5 21 18 38 13 17 29 42 35 56 6 14 24 48 40 75 16 28
32 58 36 68 3 9 11 17 16 17 5 0 6 5 3 10 -3 5 -2 10 3 10 5 0 12 8 16 18 3 9
27 53 51 97 25 44 53 95 61 114 9 19 27 49 40 66 13 18 29 47 36 66 6 19 14
36 17 39 9 8 33 52 111 207 39 79 75 143 79 143 4 0 13 18 20 40 6 22 16 40
21 40 6 0 10 6 10 12 0 16 52 121 63 129 5 3 8 8 8 10 -3 10 24 69 31 69 4 0
8 8 8 18 0 9 27 71 60 136 32 65 62 132 65 147 4 16 11 29 15 29 5 0 15 18 21
40 7 22 16 40 21 40 4 0 8 8 8 17 0 16 17 57 60 148 11 22 22 52 26 68 3 15
10 27 16 27 5 0 7 4 3 9 -3 5 -1 12 5 16 5 3 10 15 10 25 0 10 6 25 14 32 7 8
19 37 26 66 8 29 17 52 21 52 4 0 13 25 20 55 7 30 16 55 20 55 5 0 11 16 15
35 3 19 10 35 16 35 5 0 7 4 3 10 -3 5 -2 17 4 27 17 33 35 78 36 88 0 6 3 15
7 20 3 6 9 27 13 48 4 20 11 37 15 37 4 0 13 28 20 63 6 34 16 67 20 72 4 6
14 38 20 73 7 34 16 62 20 62 4 0 11 25 15 55 3 30 10 55 15 55 4 0 6 9 3 20
-3 11 -1 26 5 33 5 6 13 39 17 72 4 33 11 62 16 65 4 3 13 64 19 135 7 72 16
138 21 147 13 25 12 425 -1 433 -5 3 -10 30 -10 58 0 82 -22 307 -30 307 -5 0
-11 33 -15 73 -4 39 -12 78 -17 84 -6 7 -8 19 -5 28 4 8 2 17 -2 20 -5 3 -12
32 -16 65 -4 33 -10 60 -15 60 -4 0 -13 28 -20 63 -6 34 -15 67 -19 72 -5 6
-14 38 -21 73 -7 34 -16 62 -20 62 -4 0 -12 25 -19 55 -7 30 -16 55 -21 55 -4
0 -11 16 -14 35 -4 19 -11 35 -17 35 -5 0 -9 6 -8 13 2 12 -2 24 -43 113 -10
22 -18 46 -18 52 0 7 -4 12 -10 12 -5 0 -15 20 -21 45 -6 25 -15 45 -19 45 -5
0 -11 13 -15 30 -4 16 -12 33 -19 37 -6 5 -26 37 -44 73 -18 36 -44 83 -57
105 -13 22 -30 51 -37 65 -11 23 -63 98 -88 127 -5 7 -10 16 -10 20 0 5 -13
24 -30 43 -16 19 -29 38 -30 43 0 4 -7 15 -15 25 -56 64 -125 152 -125 160 0
5 -18 24 -40 43 -22 19 -40 39 -40 44 0 15 -419 425 -434 425 -4 0 -32 20 -60
45 -29 25 -56 45 -60 45 -3 0 -14 7 -23 16 -50 43 -119 94 -129 94 -7 0 -14 7
-18 15 -3 8 -10 15 -16 15 -6 0 -26 11 -44 25 -18 14 -38 25 -44 25 -6 0 -12
3 -14 8 -5 10 -76 55 -130 81 -27 13 -48 26 -48 30 0 4 -18 14 -40 21 -22 7
-40 16 -40 20 0 4 -18 13 -40 20 -22 7 -40 17 -40 21 0 4 -13 10 -30 14 -16 4
-30 10 -30 15 0 4 -12 11 -27 15 -16 3 -48 16 -73 27 -71 32 -102 45 -140 58
-49 17 -80 30 -112 45 -15 8 -55 19 -88 26 -33 6 -60 15 -60 19 0 4 -27 13
-61 19 -34 6 -66 15 -73 20 -6 5 -45 14 -86 21 -41 6 -82 15 -91 20 -9 5 -63
14 -120 21 -57 6 -109 16 -114 20 -6 4 -59 11 -118 15 -59 4 -110 11 -113 15
-3 5 -149 9 -324 9 -175 0 -321 -4 -324 -9z m566 -2438 c7 -6 38 -13 68 -17
30 -4 68 -13 85 -21 16 -7 41 -16 55 -20 41 -11 113 -45 227 -105 42 -23 137
-91 141 -102 2 -4 9 -8 16 -8 15 0 216 -202 216 -217 0 -7 9 -17 20 -23 11 -6
20 -17 20 -24 0 -7 9 -21 20 -31 11 -10 20 -24 20 -31 0 -7 4 -14 9 -16 14 -5
122 -219 115 -229 -3 -5 -1 -9 4 -9 6 0 13 -15 16 -34 4 -19 13 -47 20 -62 8
-16 17 -54 21 -84 4 -30 12 -61 19 -69 15 -19 16 -439 1 -449 -6 -4 -17 -42
-24 -85 -7 -42 -19 -90 -27 -105 -7 -15 -14 -35 -14 -44 0 -10 -4 -18 -9 -18
-5 0 -8 -6 -7 -12 2 -18 -95 -211 -111 -221 -7 -4 -13 -13 -13 -20 0 -7 -18
-35 -40 -62 -22 -28 -50 -63 -62 -80 -36 -48 -200 -205 -215 -205 -4 -1 -24
-14 -43 -30 -19 -17 -40 -30 -47 -30 -7 0 -13 -3 -13 -7 0 -5 -10 -13 -23 -19
-12 -6 -53 -28 -92 -48 -38 -20 -77 -36 -87 -36 -10 0 -18 -4 -18 -9 0 -5 -21
-14 -47 -21 -26 -6 -52 -15 -58 -20 -5 -4 -46 -13 -90 -20 -44 -7 -89 -17 -99
-22 -11 -6 -96 -10 -196 -10 -100 0 -185 4 -196 10 -10 5 -55 15 -99 22 -44 7
-85 16 -90 20 -6 5 -32 14 -58 20 -26 7 -47 16 -47 21 0 5 -8 9 -18 9 -10 0
-49 16 -87 36 -39 20 -80 42 -92 48 -13 6 -23 14 -23 19 0 4 -6 7 -13 7 -7 0
-28 13 -47 30 -19 16 -39 29 -43 30 -15 0 -179 157 -215 205 -12 17 -40 52
-62 80 -22 27 -40 55 -40 62 0 7 -6 16 -13 20 -16 10 -113 203 -111 221 1 6
-2 12 -6 12 -5 0 -12 15 -15 33 -4 17 -11 37 -15 42 -4 6 -14 46 -21 90 -7 44
-18 83 -24 87 -15 10 -14 430 1 449 7 8 15 39 19 69 4 30 13 68 21 84 7 15 16
43 20 62 3 19 10 34 16 34 5 0 7 4 4 9 -7 10 101 224 115 229 5 2 9 9 9 16 0
7 9 21 20 31 11 10 20 24 20 31 0 7 9 18 20 24 11 6 20 16 20 23 0 16 201 217
217 217 6 0 13 4 15 8 4 11 99 79 141 102 114 60 186 94 227 105 14 4 39 13
55 20 17 8 55 17 85 21 30 4 60 10 65 15 18 13 84 17 282 15 115 -1 197 -6
205 -13z"/>
</g>
</svg>
